<?xml version="1.0" standalone="no"?>
<!DOCTYPE svg PUBLIC "-//W3C//DTD SVG 20010904//EN"
 "http://www.w3.org/TR/2001/REC-SVG-20010904/DTD/svg10.dtd">
<svg version="1.0" xmlns="http://www.w3.org/2000/svg"
 width="512.000000pt" height="512.000000pt" viewBox="0 0 512.000000 512.000000"
 preserveAspectRatio="xMidYMid meet">
<metadata>
Created by potrace 1.14, written by Peter Selinger 2001-2017
</metadata>
<g transform="translate(0.000000,512.000000) scale(0.100000,-0.100000)"
fill="#000000" stroke="none">
<path d="M1840 4828 c-75 -51 -74 -50 -80 -347 l-5 -267 -160 -1 c-88 0 -187
-6 -220 -13 -170 -34 -330 -158 -404 -313 -54 -113 -63 -161 -64 -354 l-2
-168 -267 -5 c-251 -5 -268 -6 -295 -26 -98 -73 -98 -195 0 -268 27 -20 43
-21 296 -24 l268 -3 -1 -477 0 -477 -267 -5 c-252 -5 -269 -6 -296 -26 -98
-73 -98 -195 0 -268 27 -20 43 -21 296 -24 l267 -3 1 -157 c0 -86 3 -175 6
-197 26 -180 156 -356 320 -434 114 -54 163 -63 357 -64 l169 -1 3 -267 c3
-253 4 -269 24 -296 35 -46 82 -73 131 -73 55 0 94 20 130 67 l28 36 5 266 5
266 475 1 475 0 5 -267 c5 -252 6 -269 26 -296 73 -98 195 -98 268 0 20 27 21
44 26 295 l5 267 165 2 c234 2 327 27 454 124 111 83 201 232 222 365 3 19 6
108 7 197 l1 162 267 5 c252 5 269 6 296 26 98 73 98 195 0 268 -27 20 -43 21
-296 24 l-268 3 0 477 1 477 267 5 c252 5 269 6 296 26 98 73 98 195 0 268
-27 20 -43 21 -296 24 l-267 3 -1 169 c-1 194 -10 243 -64 357 -55 114 -148
207 -262 262 -115 54 -165 63 -358 64 l-169 1 0 255 c0 234 -2 258 -20 296
-38 79 -149 111 -220 63 -75 -51 -74 -50 -80 -346 l-5 -267 -477 -1 -477 0 -3
267 c-3 253 -4 269 -24 296 -35 48 -82 73 -134 73 -32 0 -57 -7 -80 -22z m436
-1594 c67 -32 100 -110 78 -184 -11 -37 -46 -77 -236 -267 l-223 -223 219
-219 c121 -120 225 -229 232 -242 32 -58 8 -161 -48 -201 -33 -23 -101 -34
-145 -24 -37 10 -608 577 -629 626 -19 44 -12 111 15 148 37 51 586 590 606
595 43 10 99 6 131 -9z m722 -8 c20 -13 161 -149 313 -302 204 -206 279 -288
288 -315 13 -40 8 -87 -14 -128 -21 -41 -577 -589 -608 -601 -126 -46 -243 53
-215 184 9 41 28 64 235 271 l225 225 -217 217 c-119 119 -223 229 -231 244
-41 80 -8 180 71 215 48 21 110 17 153 -10z"/>
</g>
</svg>
